<svg width="20" height="20" viewBox="0 0 20 20" fill="none" xmlns="http://www.w3.org/2000/svg">
<path d="M16.3654 17.292C16.1566 17.5007 15.926 17.684 15.6901 17.8598C14.6106 18.6655 13.403 19.184 12.0876 19.4597C11.5665 19.5689 11.0395 19.6323 10.5085 19.6665C10.4958 19.6674 10.4832 19.6698 10.4705 19.6715C10.4401 19.6888 10.4071 19.6767 10.3756 19.6804H10.1209C10.0643 19.6851 10.0065 19.6698 9.95071 19.69H9.681C9.64911 19.6698 9.61357 19.6847 9.58024 19.6804H9.30649C8.77208 19.674 8.24749 19.5889 7.72724 19.4762C6.93981 19.3052 6.17715 19.0355 5.45734 18.6736C4.73392 18.3122 4.05808 17.8627 3.44521 17.3353C2.76879 16.7541 2.17277 16.0856 1.67284 15.3474C1.46092 15.0342 1.27183 14.7067 1.09344 14.3733C1.07418 14.3369 1.05067 14.3012 1.0498 14.2578C1.09277 14.1735 1.17869 14.1351 1.24814 14.0816C1.89563 13.5831 2.53774 13.0776 3.18514 12.579C3.51521 12.3249 3.84435 12.0694 4.17256 11.8128C4.2187 11.7769 4.25771 11.7225 4.32764 11.7279C4.39382 11.8874 4.44795 12.0515 4.51846 12.209C5.12993 13.5791 6.10156 14.6025 7.45907 15.2516C8.02353 15.5227 8.63138 15.6922 9.25476 15.7526C10.3646 15.8605 11.4341 15.7062 12.455 15.2487C12.6885 15.143 12.9138 15.0202 13.1292 14.8813C13.1533 14.8659 13.1789 14.8524 13.2039 14.8384C13.2431 14.834 13.2697 14.8577 13.2976 14.8795C14.2372 15.6108 15.1774 16.3413 16.1183 17.0709C16.2051 17.1384 16.3132 17.1849 16.3654 17.292Z" fill="#34A853"/>
<path d="M10.1429 0H10.2772C10.7226 0.0212654 11.1659 0.0635075 11.6053 0.140582C12.6552 0.324754 13.648 0.670966 14.5785 1.19317C15.2385 1.56353 15.8438 2.00866 16.3998 2.52105C16.4093 2.52889 16.4198 2.53558 16.4309 2.54097L13.6199 5.34877C13.5384 5.27824 13.4455 5.19482 13.3495 5.11514C12.613 4.50335 11.7693 4.12462 10.8258 3.96758C10.3431 3.88724 9.85658 3.86443 9.3687 3.90985C8.25884 4.01249 7.26179 4.40328 6.37753 5.08223C5.42487 5.81555 4.75522 6.75546 4.35258 7.88638C4.34517 7.90745 4.33582 7.92775 4.32744 7.94844C4.27716 7.96769 4.24952 7.92708 4.21898 7.90331C3.72358 7.51726 3.22587 7.1343 2.7297 6.74931C2.25627 6.38192 1.78399 6.0131 1.3093 5.64755C1.24582 5.59867 1.18408 5.54709 1.11935 5.50023C1.09324 5.48098 1.06733 5.46174 1.06348 5.42594C1.21326 5.11004 1.38896 4.80848 1.57978 4.51615C2.73189 2.75148 4.28532 1.47312 6.24007 0.68107C6.86859 0.427809 7.51917 0.249123 8.18766 0.135483C8.61125 0.064299 9.0388 0.0190537 9.46791 0H10.1429Z" fill="#EA4335"/>
<path d="M16.3646 17.2921C15.8718 16.9098 15.3792 16.5275 14.8868 16.1449C14.3489 15.7269 13.8111 15.3085 13.2734 14.8899C13.2507 14.8722 13.227 14.8556 13.2039 14.8386C13.3597 14.7209 13.5191 14.6077 13.6663 14.4794C14.4454 13.7989 14.9467 12.9554 15.1609 11.943C15.1618 11.9329 15.1618 11.9228 15.1609 11.9127C15.1211 11.8925 15.0789 11.9021 15.0383 11.9021C13.3544 11.9015 11.6704 11.9013 9.98638 11.9014C9.83669 11.9014 9.85528 11.92 9.85518 11.7667C9.85467 10.6164 9.85467 9.46617 9.85518 8.31591C9.85518 8.18639 9.84102 8.19736 9.97357 8.19736H19.0191C19.0352 8.19838 19.0513 8.19838 19.0673 8.19736C19.1205 8.19053 19.1413 8.21661 19.1482 8.26645C19.1873 8.54858 19.2244 8.83071 19.2503 9.11457C19.2897 9.54603 19.2951 9.97807 19.2855 10.4106C19.2715 11.0092 19.2092 11.6057 19.099 12.1942C18.9773 12.8589 18.7885 13.5095 18.5354 14.1361C18.1336 15.1251 17.5806 16.0195 16.8568 16.8069C16.722 16.9532 16.5824 17.0943 16.4389 17.2319C16.4157 17.2538 16.3958 17.2801 16.3646 17.2921Z" fill="#4285F4"/>
<path d="M1.06464 5.42578C1.3097 5.61611 1.55475 5.80641 1.7998 5.99667C2.1711 6.28534 2.54236 6.57382 2.9136 6.86211C3.20424 7.08759 3.49521 7.31266 3.78649 7.53731C3.94838 7.66259 4.11008 7.7881 4.27159 7.91383C4.28941 7.92769 4.30607 7.9427 4.32861 7.94818C4.2634 8.17546 4.19472 8.40159 4.14559 8.633C4.03585 9.14697 3.99638 9.67342 4.02827 10.198C4.05674 10.6967 4.15175 11.1893 4.31079 11.6629C4.31792 11.6839 4.32158 11.7059 4.32678 11.7275C4.12845 11.8794 3.92944 12.0304 3.73197 12.1833C2.8429 12.8717 1.95379 13.5605 1.06464 14.2496C0.922084 13.9878 0.804568 13.7145 0.69418 13.4384C0.201557 12.2076 -0.0333941 10.8891 0.00382118 9.56406C0.048259 8.1363 0.387611 6.78199 1.02188 5.50112C1.03488 5.47534 1.0501 5.4507 1.06464 5.42578Z" fill="#FBBC05"/>
</svg>
